
<svg
	id="__svg__icons__dom__"
	xmlns="http://www.w3.org/2000/svg"
	xmlns:link="http://www.w3.org/1999/xlink">
	<!-- apps icon -->
	<symbol fill="currentColor" viewBox="0 0 20 20" id="apps">
		<path
			d="M8.33333 2.5H2.5V8.33333H8.33333V2.5Z"
			stroke="white"
			stroke-width="1.5"
			stroke-linecap="round"
			stroke-linejoin="round"></path>
		<path
			d="M17.5 2.5H11.6667V8.33333H17.5V2.5Z"
			stroke="white"
			stroke-width="1.5"
			stroke-linecap="round"
			stroke-linejoin="round"></path>
		<path
			d="M17.5 11.6667H11.6667V17.5H17.5V11.6667Z"
			stroke="white"
			stroke-width="1.5"
			stroke-linecap="round"
			stroke-linejoin="round"></path>
		<path
			d="M8.33333 11.6667H2.5V17.5H8.33333V11.6667Z"
			stroke="white"
			stroke-width="1.5"
			stroke-linecap="round"
			stroke-linejoin="round"></path>
	</symbol>

	<symbol viewBox="0 0 20 20" fill="none" id="fold-apps">
		<g clip-path="url(#fold-apps_clip0_1684_46771)">
			<path
				d="M0.833336 5V18.3333L6.66667 15L13.3333 18.3333L19.1667 15V1.66666L13.3333 5L6.66667 1.66666L0.833336 5Z"
				stroke="#717171"
				stroke-width="1.5"
				stroke-linecap="round"
				stroke-linejoin="round"></path>
			<path
				d="M6.66666 1.66666V15"
				stroke="#717171"
				stroke-width="1.5"
				stroke-linecap="round"
				stroke-linejoin="round"></path>
			<path
				d="M13.3333 5V18.3333"
				stroke="#717171"
				stroke-width="1.5"
				stroke-linecap="round"
				stroke-linejoin="round"></path>
		</g>
		<defs>
			<clipPath id="fold-apps_clip0_1684_46771">
				<rect width="20" height="20" fill="white"></rect>
			</clipPath>
		</defs>
	</symbol>

	<!-- funnel -->
	<symbol viewBox="0 0 20 20" fill="none" id="funnel">
		<path
			d="M18.3333 2.5H1.66663L8.33329 10.3833V15.8333L11.6666 17.5V10.3833L18.3333 2.5Z"
			stroke="#717171"
			stroke-width="1.5"
			stroke-linecap="round"
			stroke-linejoin="round"></path>
	</symbol>

	<!-- caret-down -->
	<symbol viewBox="0 0 20 20" fill="none" id="caret-down">
		<path
			d="M5 7.5L10 12.5L15 7.5"
			stroke="#717171"
			stroke-width="1.5"
			stroke-linecap="round"
			stroke-linejoin="round"></path>
	</symbol>

	<!-- calendar icon -->
	<symbol viewBox="0 0 20 20" fill="none" id="calendar">
		<path
			d="M15.8333 3.33334H4.16667C3.24619 3.33334 2.5 4.07953 2.5 5V16.6667C2.5 17.5871 3.24619 18.3333 4.16667 18.3333H15.8333C16.7538 18.3333 17.5 17.5871 17.5 16.6667V5C17.5 4.07953 16.7538 3.33334 15.8333 3.33334Z"
			stroke="#717171"
			stroke-width="1.5"
			stroke-linecap="round"
			stroke-linejoin="round"></path>
		<path
			d="M13.3333 1.66666V5"
			stroke="#717171"
			stroke-width="1.5"
			stroke-linecap="round"
			stroke-linejoin="round"></path>
		<path
			d="M6.66669 1.66666V5"
			stroke="#717171"
			stroke-width="1.5"
			stroke-linecap="round"
			stroke-linejoin="round"></path>
		<path
			d="M2.5 8.33334H17.5"
			stroke="#717171"
			stroke-width="1.5"
			stroke-linecap="round"
			stroke-linejoin="round"></path>
	</symbol>

	<!-- minus icon -->

	<symbol
		id="minus"
		fill="none"
		viewBox="0 0 24 24"
		stroke-width="2"
		stroke="currentColor">
		<path stroke-linecap="round" stroke-linejoin="round" d="M18 12H6" />
	</symbol>

	<!-- plus icon -->
	<symbol
		fill="none"
		viewBox="0 0 24 24"
		stroke-width="2"
		stroke="currentColor"
		id="plus">
		<path
			stroke-linecap="round"
			stroke-linejoin="round"
			stroke="currentColor"
			d="M12 6v12m6-6H6" />
	</symbol>

	<!-- sidebar icons -->

	<!-- airbnb icon -->
	<symbol fill="none" viewBox="0 0 24 24" id="airbnb">
		<path
			d="M23.0635 17.0326C22.9558 16.7305 22.8298 16.4382 22.7101 16.1674C22.5257 15.7508 22.3326 15.3334 22.1458 14.93L22.131 14.898C20.465 11.2942 18.6769 7.64107 16.8164 4.04026L16.7374 3.88737C16.5476 3.51967 16.3514 3.13947 16.1501 2.76589C15.9113 2.29312 15.6216 1.8477 15.286 1.43751C14.9083 0.987382 14.4361 0.625366 13.9028 0.37699C13.3695 0.128614 12.788 -7.37969e-05 12.1994 3.17487e-08C11.6108 7.38603e-05 11.0293 0.128908 10.496 0.377418C9.96283 0.625928 9.49072 0.988064 9.11314 1.43828C8.77798 1.84857 8.48842 2.2939 8.24958 2.76643C8.04648 3.14336 7.84844 3.52708 7.65695 3.89818L7.58361 4.04022C5.72303 7.6413 3.93492 11.2944 2.26898 14.8979L2.2447 14.9503C2.06114 15.3472 1.87136 15.7576 1.69005 16.1672C1.57023 16.4378 1.44448 16.7299 1.33663 17.0327C1.02771 17.8578 0.929271 18.7465 1.05016 19.6189C1.17836 20.5005 1.53533 21.3335 2.08571 22.0353C2.63609 22.7371 3.36079 23.2833 4.18803 23.6199C4.81286 23.8724 5.48095 24.0015 6.15516 24C6.36694 23.9999 6.57855 23.9876 6.78892 23.9632C7.64163 23.8546 8.46404 23.5774 9.20789 23.1479C10.1836 22.6003 11.1473 21.7978 12.2 20.6511C13.2527 21.7978 14.2164 22.6003 15.1921 23.1479C15.9359 23.5775 16.7584 23.8546 17.6111 23.9632C17.8214 23.9876 18.0331 23.9999 18.2449 24C18.919 24.0015 19.587 23.8724 20.2119 23.6199C21.0391 23.2833 21.7639 22.7371 22.3143 22.0353C22.8647 21.3335 23.2217 20.5006 23.3499 19.6189C23.4707 18.7464 23.3722 17.8577 23.0635 17.0326ZM12.2 18.2827C10.8968 16.6327 10.0606 15.1003 9.76717 13.8157C9.64696 13.3344 9.61858 12.8348 9.68353 12.343C9.73481 11.9824 9.8674 11.6382 10.0713 11.3361C10.3222 11.011 10.6447 10.7478 11.0138 10.5667C11.3829 10.3856 11.7888 10.2914 12.2002 10.2914C12.6116 10.2915 13.0174 10.3857 13.3865 10.5669C13.7556 10.748 14.078 11.0113 14.3289 11.3363C14.5328 11.6386 14.6654 11.9828 14.7167 12.3434C14.7815 12.8355 14.753 13.3352 14.6326 13.8167C14.3389 15.1012 13.5029 16.633 12.2 18.2827ZM21.8278 19.4017C21.7382 20.0181 21.4885 20.6005 21.1037 21.0912C20.7189 21.5819 20.2122 21.9639 19.6337 22.1992C19.0489 22.4333 18.4141 22.5163 17.7886 22.4404C17.1383 22.3567 16.5116 22.1429 15.9462 21.8118C15.0777 21.3244 14.1985 20.5761 13.2092 19.4784C14.7841 17.5384 15.7676 15.7504 16.1318 14.1577C16.2957 13.488 16.3312 12.7934 16.2365 12.1106C16.1506 11.5224 15.932 10.9612 15.5971 10.4695C15.2048 9.93892 14.6931 9.5076 14.1031 9.21037C13.513 8.91315 12.8612 8.75827 12.2002 8.75827C11.5391 8.75827 10.8873 8.91307 10.2972 9.21022C9.70718 9.50737 9.19543 9.93862 8.80313 10.4692C8.46832 10.9608 8.24972 11.5218 8.16374 12.1099C8.06902 12.7924 8.10436 13.4866 8.26789 14.1562C8.6318 15.7495 9.61535 17.538 11.1908 19.4785C10.2015 20.5761 9.32231 21.3244 8.45377 21.8119C7.88841 22.1429 7.26178 22.3567 6.61149 22.4404C5.98584 22.5163 5.35111 22.4333 4.7662 22.1992C4.18778 21.9639 3.68107 21.5819 3.29625 21.0913C2.91144 20.6005 2.66187 20.0181 2.57227 19.4017C2.48609 18.775 2.55943 18.1369 2.78555 17.5459C2.87151 17.3046 2.97209 17.0677 3.0967 16.7863C3.27299 16.3882 3.46007 15.9836 3.64103 15.5923L3.66533 15.5398C5.32196 11.9564 7.10016 8.32365 8.95059 4.7422L9.02424 4.59962C9.21262 4.23451 9.40746 3.857 9.60402 3.49222C9.79202 3.11626 10.0196 2.76128 10.2829 2.4333C10.5162 2.15177 10.809 1.92511 11.1403 1.7695C11.4717 1.61389 11.8335 1.53319 12.1997 1.53316C12.5659 1.53313 12.9278 1.61378 13.2591 1.76933C13.5905 1.92488 13.8833 2.1515 14.1167 2.43299C14.3801 2.76073 14.6078 3.11558 14.7956 3.49153C14.9904 3.85306 15.1835 4.22717 15.3703 4.58893L15.4494 4.74236C17.2998 8.32342 19.0779 11.9561 20.7347 15.5401L20.7497 15.5723C20.9338 15.9702 21.1241 16.3814 21.3033 16.7865C21.4281 17.0683 21.5289 17.3053 21.6146 17.5458C21.8406 18.1368 21.9139 18.775 21.8278 19.4017Z"
			fill="#121212"></path>
	</symbol>

	<!-- views icon -->
	<symbol fill="none" viewBox="0 0 24 24" id="views">
		<path
			clip-rule="evenodd"
			d="M21.25 21.75a1.5 1.5 0 0 1-1.5 1.5h-15a1.5 1.5 0 0 1-1.5-1.5v-12a9 9 0 0 1 18 0v12Z"
			stroke="#000"
			stroke-width="1.5"
			stroke-linecap="round"
			stroke-linejoin="round"></path>
		<path
			d="M3.25 9.75h18m-18 6h18m-9-6v-9m-3 9v13.5m6-13.5v13.5M5.56 3.729l6.69 6.021m6.69-6.021L12.25 9.75"
			stroke="#000"
			stroke-width="1.5"
			stroke-linecap="round"
			stroke-linejoin="round"></path>
	</symbol>

	<!-- tiny icon -->
	<symbol fill="none" viewBox="0 0 24 24" id="tiny">
		<path
			d="M.788 20.571H23.25"
			stroke="#000"
			stroke-width="1.5"
			stroke-linecap="round"
			stroke-linejoin="round"></path>
		<path
			clip-rule="evenodd"
			d="M9.773 20.571H2.286v-9.733l7.487-1.497v11.23Zm11.98 0H9.773V4.101l11.98 5.24v11.23Z"
			stroke="#000"
			stroke-width="1.5"
			stroke-linecap="round"
			stroke-linejoin="round"></path>
		<path
			d="M12.768 8.967a.374.374 0 0 1 .374.374m-.749 0c0-.207.168-.374.375-.374m0 .749a.375.375 0 0 1-.375-.375"
			stroke="#000"
			stroke-width="1.5"
			stroke-linecap="round"
			stroke-linejoin="round"></path>
		<path
			d="M13.142 9.341a.374.374 0 0 1-.374.375"
			stroke="#000"
			stroke-width="1.5"
			stroke-linecap="round"
			stroke-linejoin="round"></path>
		<path
			clip-rule="evenodd"
			d="M18.758 20.571h-5.99v-4.492a1.5 1.5 0 0 1 1.5-1.5h3a1.5 1.5 0 0 1 1.5 1.5l-.01 4.492Z"
			stroke="#000"
			stroke-width="1.5"
			stroke-linecap="round"
			stroke-linejoin="round"></path>
		<path
			d="m.75 11.146 9.023-1.805M8.238 3.429l15.008 6.565m-4.488-1.972V4.101h2.995v5.24"
			stroke="#000"
			stroke-width="1.5"
			stroke-linecap="round"
			stroke-linejoin="round"></path>
	</symbol>

	<!-- kitchen icon -->
	<symbol fill="none" viewBox="0 0 24 24" id="kitchen">
		<path
			d="M.75 4.5H22.5a.75.75 0 0 1 .75.75V9a1.5 1.5 0 0 1-1.5 1.5h-12A1.5 1.5 0 0 1 8.25 9V4.5M9.75 15v1.5m3 0v-3m3 1.5v1.5m6-1.5v1.5m-3 0v-3m-10.5 6h15"
			stroke="#000"
			stroke-width="1.5"
			stroke-linecap="round"
			stroke-linejoin="round"></path>
	</symbol>

	<!-- surfer icon -->
	<symbol fill="none" viewBox="0 0 24 24" id="surfer">
		<path
			clip-rule="evenodd"
			d="M17.25 6.25a2.625 2.625 0 1 0 0-5.25 2.625 2.625 0 0 0 0 5.25Z"
			stroke="#000"
			stroke-width="1.5"
			stroke-linecap="round"
			stroke-linejoin="round"></path>
		<path
			d="M16.454 18.993c.03-.12.046-.244.046-.368v-2.947a3 3 0 0 0-1.336-2.5l-.57-.38.7-1.758c.56.263 1.1.567 1.616.91l4 2.669a1.502 1.502 0 0 0 1.665-2.5l-4-2.669a15.54 15.54 0 0 0-6.668-2.48A4.494 4.494 0 0 1 8.721 5a1.502 1.502 0 1 0-2.5 1.664A7.486 7.486 0 0 0 10.5 9.75l-1.21 1.214a3.01 3.01 0 0 0-.79 2.848l.3 1.211-2.2 1.652a1.5 1.5 0 0 0-.473.6"
			stroke="#000"
			stroke-width="1.5"
			stroke-linecap="round"
			stroke-linejoin="round"></path>
		<path
			d="m9.954 17.909.648-.485a3 3 0 0 0 1.155-2.924c.05.044 1.743 1.18 1.743 1.18v2.82m-12.75.875 22.5 3.75M2.137 19.606l-.844 2.532a.751.751 0 0 0 1.022.92l5.509-2.5"
			stroke="#000"
			stroke-width="1.5"
			stroke-linecap="round"
			stroke-linejoin="round"></path>
	</symbol>

	<!-- mansion icon -->
	<symbol fill="none" viewBox="0 0 24 24" id="mansion">
		<path
			clip-rule="evenodd"
			d="M16.5 21.25h-9V11.5l3.876-5.814a.75.75 0 0 1 1.248 0L16.5 11.5v9.75Z"
			stroke="#000"
			stroke-width="1.5"
			stroke-linecap="round"
			stroke-linejoin="round"></path>
		<path
			d="M12 11.875a.375.375 0 1 1 0 .75.375.375 0 0 1 0-.75"
			stroke="#000"
			stroke-width="1.5"
			stroke-linecap="round"
			stroke-linejoin="round"></path>
		<path
			clip-rule="evenodd"
			d="M13.5 21.25h-3v-3a1.5 1.5 0 0 1 3 0v3Zm-12-13.5h6v13.5h-5a1 1 0 0 1-1-1V7.75Zm15 0h6v12.5a1 1 0 0 1-1 1h-5V7.75Z"
			stroke="#000"
			stroke-width="1.5"
			stroke-linecap="round"
			stroke-linejoin="round"></path>
		<path
			d="m2.25 7.75 2.25-4.5 2.25 4.5m10.5 0 2.25-4.5 2.25 4.5M4.5 12.25v1.5m15-1.5v1.5m-18 0h6m9 0h6m-18 3v1.5m15-1.5v1.5"
			stroke="#000"
			stroke-width="1.5"
			stroke-linecap="round"
			stroke-linejoin="round"></path>
	</symbol>

	<!-- luxe icon -->
	<symbol fill="none" viewBox="0 0 24 24" id="luxe">
		<path
			d="M.75 14.254v9"
			stroke="#000"
			stroke-width="1.5"
			stroke-linecap="round"
			stroke-linejoin="round"></path>
		<path
			clip-rule="evenodd"
			d="M15.75 21.754a3 3 0 0 0-3-3H9a3 3 0 0 0-3-3H.75v6h15Z"
			stroke="#000"
			stroke-width="1.5"
			stroke-linecap="round"
			stroke-linejoin="round"></path>
		<path
			d="M6 18.754h3m-6.75-7.5h21M12.75.754v1.5"
			stroke="#000"
			stroke-width="1.5"
			stroke-linecap="round"
			stroke-linejoin="round"></path>
		<path
			clip-rule="evenodd"
			d="M21.75 11.254a9 9 0 1 0-18 0h18Z"
			stroke="#000"
			stroke-width="1.5"
			stroke-linecap="round"
			stroke-linejoin="round"></path>
		<path
			d="m21.75 11.254-.671 1.346a3 3 0 0 1-2.679 1.654h-7.15"
			stroke="#000"
			stroke-width="1.5"
			stroke-linecap="round"
			stroke-linejoin="round"></path>
	</symbol>

	<!-- treehouses icon -->
	<symbol fill="none" viewBox="0 0 24 24" id="treehouses">
		<path
			clip-rule="evenodd"
			d="M7.374 1.084a.75.75 0 0 0-1.248 0L2.25 7.5H4.5l-2.9 4.128a.75.75 0 0 0 .65 1.122h9a.75.75 0 0 0 .651-1.122L9.001 7.5h2.25L7.373 1.084Z"
			stroke="#000"
			stroke-width="1.5"
			stroke-linecap="round"
			stroke-linejoin="round"></path>
		<path
			d="M6.75 12.75v4.582"
			stroke="#000"
			stroke-width="1.5"
			stroke-linecap="round"
			stroke-linejoin="round"></path>
		<path
			clip-rule="evenodd"
			d="M19.262 1.023a.614.614 0 0 0-1.021 0L15.069 6h1.841l-2.578 3.582a.613.613 0 0 0 .533.918h7.77a.613.613 0 0 0 .533-.918L20.592 6h1.841l-3.171-4.977Z"
			stroke="#000"
			stroke-width="1.5"
			stroke-linecap="round"
			stroke-linejoin="round"></path>
		<path
			d="M18.751 10.5v4.035M.805 18a13.517 13.517 0 0 1 15.673 5.254"
			stroke="#000"
			stroke-width="1.5"
			stroke-linecap="round"
			stroke-linejoin="round"></path>
		<path
			d="M10.969 18.518A15.7 15.7 0 0 1 21.75 14.25c.506 0 1.006.023 1.5.07"
			stroke="#000"
			stroke-width="1.5"
			stroke-linecap="round"
			stroke-linejoin="round"></path>
	</symbol>

	<!-- camping icon -->
	<symbol fill="none" viewBox="0 0 24 24" id="camping">
		<path
			clip-rule="evenodd"
			d="M3 23.25a1.5 1.5 0 0 1-1.36-2.134l9-19.5a1.5 1.5 0 0 1 2.719 0l9 19.5a1.5 1.5 0 0 1-1.36 2.134H3Z"
			stroke="#000"
			stroke-width="1.5"
			stroke-linecap="round"
			stroke-linejoin="round"></path>
		<path
			clip-rule="evenodd"
			d="M7.5 23.25h9l-3.158-8.171a1.5 1.5 0 0 0-2.684 0L7.5 23.25Z"
			stroke="#000"
			stroke-width="1.5"
			stroke-linecap="round"
			stroke-linejoin="round"></path>
		<path
			d="M8.25 6.75h7.406m-9.462 4.5h11.612m-5.806 3v9"
			stroke="#000"
			stroke-width="1.5"
			stroke-linecap="round"
			stroke-linejoin="round"></path>
	</symbol>

	<!-- beachfront icon -->
	<symbol fill="none" viewBox="0 0 24 24" id="beachfront">
		<path
			d="m8.25 7.5 6.35 3.887a.729.729 0 0 0 1.109-.6 4.1 4.1 0 0 0-2.189-4.083 5.953 5.953 0 0 0-2.02-.592M8.25 7.5H1.5a.769.769 0 0 1-.684-1.033 4.165 4.165 0 0 1 3.957-2.68 5.549 5.549 0 0 1 2.627.744"
			stroke="#000"
			stroke-width="1.5"
			stroke-linecap="round"
			stroke-linejoin="round"></path>
		<path
			d="m12.864 6.429 3.309-1.97a.653.653 0 0 0 .085-1.073 4.264 4.264 0 0 0-4.428-.673 3.244 3.244 0 0 0-1.53 1.426"
			stroke="#000"
			stroke-width="1.5"
			stroke-linecap="round"
			stroke-linejoin="round"></path>
		<path
			d="M5.907 3.939 4.712 1.72a.656.656 0 0 1 .6-.969 11.57 11.57 0 0 1 2.188.343 4.454 4.454 0 0 1 2.808 3.045M23.25 20.25h-8.867a1.5 1.5 0 0 1-1.312-.772L10.5 14.25m9.752 6 .75 3m-7.392-3.216-1.608 3.216m-.395-6.75H16.5M.75 23.25C.867 21.258.84 12.828 7.5 7.5m.75 0A31.7 31.7 0 0 0 6 23.25"
			stroke="#000"
			stroke-width="1.5"
			stroke-linecap="round"
			stroke-linejoin="round"></path>
	</symbol>

	<!-- farms icon -->
	<symbol fill="none" viewBox="0 0 24 24" id="farms">
		<path
			d="m.75 13.24 3-7.2L12 1.72m11.25 11.52-3-7.2L12 1.72m-8.25 21.6v-10.8m16.5 10.8v-10.8M.75 23.32h22.5m-15.75 0v-7.2h9v7.2m-9-7.2 9 7.2m0-7.2-9 7.2"
			stroke="#000"
			stroke-width="1.5"
			stroke-linecap="round"
			stroke-linejoin="round"></path>
		<path
			clip-rule="evenodd"
			d="M12 10.36c1.243 0 2.25-.967 2.25-2.16S13.243 6.04 12 6.04s-2.25.967-2.25 2.16 1.007 2.16 2.25 2.16Z"
			stroke="#000"
			stroke-width="1.5"
			stroke-linecap="round"
			stroke-linejoin="round"></path>
	</symbol>

	<!-- castles icon -->
	<symbol fill="none" viewBox="0 0 24 24" id="castles">
		<path
			clip-rule="evenodd"
			d="M19.5 1.72c.414 0 .75.322.75.72V8.2c0 .398-.336.72-.75.72h-15c-.414 0-.75-.322-.75-.72V2.44c0-.398.336-.72.75-.72h2.25c.414 0 .75.322.75.72v.72c0 .795.672 1.44 1.5 1.44s1.5-.645 1.5-1.44v-.72c0-.398.336-.72.75-.72h1.5c.414 0 .75.322.75.72v.72c0 .795.672 1.44 1.5 1.44s1.5-.645 1.5-1.44v-.72c0-.398.336-.72.75-.72h2.25ZM5.25 8.92l-1.5 14.4h16.5l-1.5-14.4H5.25v0Z"
			stroke="#000"
			stroke-width="1.5"
			stroke-linecap="round"
			stroke-linejoin="round"></path>
		<path
			clip-rule="evenodd"
			d="M14.25 23.32h-4.5v-5.04c0-1.193 1.007-2.16 2.25-2.16s2.25.967 2.25 2.16v5.04Z"
			stroke="#000"
			stroke-width="1.5"
			stroke-linecap="round"
			stroke-linejoin="round"></path>
		<path
			d="M.75 23.32h22.5"
			stroke="#000"
			stroke-width="1.5"
			stroke-linecap="round"
			stroke-linejoin="round"></path>
	</symbol>

	<!-- islands icon -->
	<symbol fill="none" viewBox="0 0 24 24" id="islands">
		<path
			clip-rule="evenodd"
			d="M23.25 21.75c0-2.485-5.037-4.5-11.25-4.5S.75 19.265.75 21.75v1.5h22.5v-1.5Z"
			stroke="#000"
			stroke-width="1.5"
			stroke-linecap="round"
			stroke-linejoin="round"></path>
		<path
			d="m15.634 8.477-.811 8.916m-6.336.081 5.247-9.619m0 0 8.276 2.709a.75.75 0 0 0 .975-.861 4.73 4.73 0 0 0-3.6-4.016 6.82 6.82 0 0 0-2.4-.082m-3.251 2.25L6.2 9.9a.75.75 0 0 1-.934-.873 4.756 4.756 0 0 1 3.616-4.09 6.347 6.347 0 0 1 3.112.079"
			stroke="#000"
			stroke-width="1.5"
			stroke-linecap="round"
			stroke-linejoin="round"></path>
		<path
			d="m18.578 5.567 3.1-3.116a.747.747 0 0 0-.21-1.211 4.869 4.869 0 0 0-5.088.51 3.708 3.708 0 0 0-1.28 2.01m-4.921 1.024-1.95-2.116a.748.748 0 0 1 .393-1.242c.827-.16 1.668-.24 2.51-.239A5.081 5.081 0 0 1 15.1 3.76"
			stroke="#000"
			stroke-width="1.5"
			stroke-linecap="round"
			stroke-linejoin="round"></path>
	</symbol>

	<!-- vineyards icon -->
	<symbol fill="none" viewBox="0 0 24 24" id="vineyards">
		<path
			d="M13.5.75a2.728 2.728 0 0 0-1.66 3.009"
			stroke="#000"
			stroke-width="1.5"
			stroke-linecap="round"
			stroke-linejoin="round"></path>
		<path
			clip-rule="evenodd"
			d="M5.25 11.25a2.25 2.25 0 1 0 0-4.5 2.25 2.25 0 0 0 0 4.5Zm6.75 0a2.25 2.25 0 1 0 0-4.5 2.25 2.25 0 0 0 0 4.5Zm0 12a2.25 2.25 0 1 0 0-4.5 2.25 2.25 0 0 0 0 4.5Zm-3.75-6a2.25 2.25 0 1 0 0-4.5 2.25 2.25 0 0 0 0 4.5Zm7.5 0a2.25 2.25 0 1 0 0-4.5 2.25 2.25 0 0 0 0 4.5Zm3-6a2.25 2.25 0 1 0 0-4.5 2.25 2.25 0 0 0 0 4.5Z"
			stroke="#000"
			stroke-width="1.5"
			stroke-linecap="round"
			stroke-linejoin="round"></path>
		<path
			d="M9.75.75h6"
			stroke="#000"
			stroke-width="1.5"
			stroke-linecap="round"
			stroke-linejoin="round"></path>
	</symbol>

	<!-- pools icon -->
	<symbol fill="none" viewBox="0 0 24 24" id="pools">
		<path
			clip-rule="evenodd"
			d="M18.423 9.971a2.25 2.25 0 1 0 0-4.5 2.25 2.25 0 0 0 0 4.5ZM4.831 3.428a.746.746 0 0 1 .368.3l2.544 3.986 5.851 2.2c.244.093.46.247.627.447l3.86 4.655a1.5 1.5 0 1 1-2.31 1.915l-3.605-4.351-5.946-2.233a1.5 1.5 0 0 1-.736-.6L1.6 3.653a.75.75 0 0 1 .9-1.1l2.331.875Z"
			stroke="#000"
			stroke-width="1.5"
			stroke-linecap="round"
			stroke-linejoin="round"></path>
		<path
			d="m9.163 8.247-1.055 2.809m-.935-4.235-2.76 1.252M.75 21.672a4.668 4.668 0 0 0 3.75-1.9 4.649 4.649 0 0 0 7.5 0 4.65 4.65 0 0 0 7.5 0 4.668 4.668 0 0 0 3.75 1.9"
			stroke="#000"
			stroke-width="1.5"
			stroke-linecap="round"
			stroke-linejoin="round"></path>
	</symbol>

	<!-- skiing icon -->
	<symbol fill="none" viewBox="0 0 24 24" id="skiing">
		<path
			d="m12.786 17.122 2.92.315m-3.412-4.895 3.896.421"
			stroke="#000"
			stroke-width="1.5"
			stroke-linecap="round"
			stroke-linejoin="round"></path>
		<path
			clip-rule="evenodd"
			d="M8.759.791a2.25 2.25 0 0 0-2 2.478l2.018 18.642a1.5 1.5 0 0 0 1.652 1.33l1.492-.161a1.5 1.5 0 0 0 1.33-1.652L11.237 2.786A2.25 2.25 0 0 0 8.759.791Z"
			stroke="#000"
			stroke-width="1.5"
			stroke-linecap="round"
			stroke-linejoin="round"></path>
		<path
			d="m12 23.069.079.011 1.492.161a1.5 1.5 0 0 0 1.652-1.33l2.014-18.642a2.25 2.25 0 0 0-4.474-.483L12 9.848m.768 7.106-4.474.483m3.99-4.957-4.474.483M2.25 6.75v16.5m-1.5-3h3"
			stroke="#000"
			stroke-width="1.5"
			stroke-linecap="round"
			stroke-linejoin="round"></path>
		<path
			clip-rule="evenodd"
			d="M2.25.75a1.5 1.5 0 0 0-1.5 1.5v4.5h3v-4.5a1.5 1.5 0 0 0-1.5-1.5Z"
			stroke="#000"
			stroke-width="1.5"
			stroke-linecap="round"
			stroke-linejoin="round"></path>
		<path
			d="M21.75 6.75v16.5m-1.5-3h3"
			stroke="#000"
			stroke-width="1.5"
			stroke-linecap="round"
			stroke-linejoin="round"></path>
		<path
			clip-rule="evenodd"
			d="M21.75.75a1.5 1.5 0 0 0-1.5 1.5v4.5h3v-4.5a1.5 1.5 0 0 0-1.5-1.5Z"
			stroke="#000"
			stroke-width="1.5"
			stroke-linecap="round"
			stroke-linejoin="round"></path>
	</symbol>

	<!-- desert icon -->
	<symbol fill="none" viewBox="0 0 24 24" id="desert">
		<path
			clip-rule="evenodd"
			d="M18.6 17.547a.729.729 0 0 0-.575-.281H5.98a.73.73 0 0 0-.708.907l.678 2.712A3.143 3.143 0 0 0 9 23.266h6c1.442 0 2.7-.982 3.049-2.381l.678-2.712a.726.726 0 0 0-.127-.626Z"
			stroke="#000"
			stroke-width="1.5"
			stroke-linecap="round"
			stroke-linejoin="round"></path>
		<path
			d="M12 .766v2.25M1.5 5.668l.75 1.299M4.5 5.668l-.75 1.299m4.007-4.701 1.415 1.75m7.071-1.75-1.415 1.75M22.5 7.168l-.75 1.299M19.5 7.168l.75 1.299"
			stroke="#000"
			stroke-width="1.5"
			stroke-linecap="round"
			stroke-linejoin="round"></path>
		<path
			clip-rule="evenodd"
			d="M21 8.266a1.5 1.5 0 0 0-1.5 1.5 1.5 1.5 0 0 1-1.5 1.5h-1.5v-3.75a4.5 4.5 0 1 0-9 0v2.25H6a1.5 1.5 0 0 1-1.5-1.5 1.5 1.5 0 1 0-3 0 4.5 4.5 0 0 0 4.5 4.5h1.5v4.5h9v-3H18a4.5 4.5 0 0 0 4.5-4.5 1.5 1.5 0 0 0-1.5-1.5Z"
			stroke="#000"
			stroke-width="1.5"
			stroke-linecap="round"
			stroke-linejoin="round"></path>
	</symbol>
	<!-- end of sidebar icons -->

	<!-- cancel component -->
	<symbol
		fill="none"
		viewBox="0 0 24 24"
		id="cancel"
		stroke="currentColor"
		stroke-width="2"
		stroke-linecap="round"
		stroke-linejoin="round">
		<line x1="18" y1="6" x2="6" y2="18"></line>
		<line x1="6" y1="6" x2="18" y2="18"></line>
	</symbol>

	<!-- upload component -->
	<symbol
		fill="none"
		viewBox="0 0 24 24"
		stroke-width="2"
		stroke="currentColor"
		id="love">
		<path
			stroke-linecap="round"
			stroke-linejoin="round"
			d="M21 8.25c0-2.485-2.099-4.5-4.688-4.5-1.935 0-3.597 1.126-4.312 2.733-.715-1.607-2.377-2.733-4.313-2.733C5.1 3.75 3 5.765 3 8.25c0 7.22 9 12 9 12s9-4.78 9-12z" />
	</symbol>

	<!-- upload component -->
	<symbol
		fill="none"
		viewBox="0 0 24 24"
		stroke-width="2"
		stroke="currentColor"
		id="upload">
		<path
			stroke-linecap="round"
			stroke-linejoin="round"
			d="M9 8.25H7.5a2.25 2.25 0 00-2.25 2.25v9a2.25 2.25 0 002.25 2.25h9a2.25 2.25 0 002.25-2.25v-9a2.25 2.25 0 00-2.25-2.25H15m0-3l-3-3m0 0l-3 3m3-3V15" />
	</symbol>

	<!-- trophy component -->
	<svg
		width="20"
		height="20"
		viewBox="0 0 20 20"
		fill="none"
		xmlns="http://www.w3.org/2000/svg"
		id="trophy">
		<path
			d="M12.9168 16.667C12.9168 18.2776 11.611 19.5833 10.0002 19.5833C8.38937 19.5833 7.0835 18.2776 7.0835 16.667C7.0835 15.0565 8.38936 13.75 10.0002 13.75C11.611 13.75 12.9168 15.0565 12.9168 16.667ZM4.58778 1.1774L4.5835 7.95937C4.5835 8.341 4.76418 8.70098 5.07417 8.93512L9.30526 12.1282C9.71115 12.4348 10.2789 12.4348 10.6856 12.129L14.9202 8.94012C15.2302 8.70764 15.4117 8.34767 15.4125 7.96687C15.4134 6.50698 15.416 2.79144 15.4168 1.18323C15.4168 0.763267 15.0666 0.42246 14.6341 0.42246L5.37046 0.416627C4.93887 0.415795 4.58863 0.756601 4.58778 1.1774Z"
			fill="white"></path>
		<path
			d="M14.1668 7.91663L10.0002 4.83226L14.1668 1.66663V7.91663ZM9.05914 15.5729C8.62428 15.8379 8.3335 16.3031 8.3335 16.8349C8.3335 17.663 9.03102 18.3333 9.89196 18.3333C10.5737 18.3333 11.1456 17.9112 11.3582 17.3254L9.05914 15.5729Z"
			fill="#FFB400"></path>
		<path
			d="M14.1668 7.91663L10.0002 11.0416L5.8335 7.91663V1.66663L14.1668 7.91663Z"
			fill="#FF5A5F"></path>
		<path
			d="M9.99984 20C8.16146 20 6.6665 18.505 6.6665 16.6675C6.6665 14.8291 8.16146 13.3333 9.99984 13.3333C11.8382 13.3333 13.3332 14.8291 13.3332 16.6675C13.3332 18.505 11.8382 20 9.99984 20ZM9.99984 14.1667C8.62126 14.1667 7.49984 15.2889 7.49984 16.6675C7.49984 18.0452 8.62126 19.1667 9.99984 19.1667C11.3784 19.1667 12.4998 18.0452 12.4998 16.6675C12.4998 15.2889 11.3784 14.1667 9.99984 14.1667ZM10.0031 12.6465C9.62305 12.6465 9.243 12.5578 8.95166 12.3828L4.74674 9.1626C4.35531 8.85905 4.1665 8.45215 4.1665 7.91667V1.25C4.16732 0.939128 4.30648 0.622559 4.54818 0.380859C4.78988 0.138753 5.10563 0 5.41569 0H5.41732H14.5832C15.2375 0 15.8332 0.595703 15.8332 1.25V7.85645C15.8324 8.42 15.6313 8.87126 15.2537 9.16219L11.0863 12.356C10.7941 12.5505 10.3986 12.6465 10.0031 12.6465ZM5.41488 0.833333C5.3278 0.833333 5.22119 0.885417 5.13737 0.969645C5.05273 1.05469 4.99984 1.16211 4.99984 1.25081V7.91667C4.99984 8.19214 5.07389 8.36182 5.25537 8.5026L9.4196 11.6951C9.6971 11.8579 10.3245 11.862 10.6037 11.6781L14.7467 8.50098C14.9136 8.3724 14.999 8.1547 14.9998 7.85522V1.24959C14.9998 1.05916 14.7736 0.833333 14.5832 0.833333H5.4165C5.4165 0.833333 5.41569 0.833333 5.41488 0.833333Z"
			fill="#484848"></path>
	</svg>

	<!-- guests component -->
	<symbol viewBox="0 0 18 20" fill="none" id="guests">
		<path
			fill-rule="evenodd"
			clip-rule="evenodd"
			d="M4.62158 5.62335C6.00229 5.62335 7.12158 4.50406 7.12158 3.12335C7.12158 1.74264 6.00229 0.623352 4.62158 0.623352C3.24087 0.623352 2.12158 1.74264 2.12158 3.12335C2.12158 4.50406 3.24087 5.62335 4.62158 5.62335Z"
			stroke="#111111"
			stroke-width="1.5"
			stroke-linecap="round"
			stroke-linejoin="round"></path>
		<path
			fill-rule="evenodd"
			clip-rule="evenodd"
			d="M9 11.25C9 8.83375 7.04125 6.875 4.625 6.875C2.20875 6.875 0.25 8.83375 0.25 11.25V13.125H2.125L2.75 19.375H6.5L7.125 13.125H9V11.25Z"
			stroke="#111111"
			stroke-width="1.5"
			stroke-linecap="round"
			stroke-linejoin="round"></path>
		<path
			d="M12.1216 16.8742V10H16.4999C17.1903 10 17.7499 10.5596 17.7499 11.25V16.875C17.7499 17.5654 17.1903 18.125 16.4999 18.125H13.3749"
			stroke="#111111"
			stroke-width="1.5"
			stroke-linecap="round"
			stroke-linejoin="round"></path>
		<path
			fill-rule="evenodd"
			clip-rule="evenodd"
			d="M12.1216 19.3734C12.8119 19.3734 13.3716 18.8137 13.3716 18.1234C13.3716 17.433 12.8119 16.8734 12.1216 16.8734C11.4312 16.8734 10.8716 17.433 10.8716 18.1234C10.8716 18.8137 11.4312 19.3734 12.1216 19.3734Z"
			stroke="#111111"
			stroke-width="1.5"
			stroke-linecap="round"
			stroke-linejoin="round"></path>
		<path
			d="M12.1216 4.99835V9.99835"
			stroke="#111111"
			stroke-width="1.5"
			stroke-linecap="round"
			stroke-linejoin="round"></path>
	</symbol>

	<!-- bedrooms -->
	<symbol
					width="20"
					height="20"
					viewBox="0 0 20 20"
					fill="none"
					id="bedrooms">
					<path
						d="M0.625 6.875L10 0.625L19.375 6.875"
						stroke="#111111"
						stroke-width="1.5"
						stroke-linecap="round"
						stroke-linejoin="round"></path>
					<path
						d="M1.875 15.625H18.125V19.375H1.875V10.625"
						stroke="#111111"
						stroke-width="1.5"
						stroke-linecap="round"
						stroke-linejoin="round"></path>
					<path
						fill-rule="evenodd"
						clip-rule="evenodd"
						d="M4.375 11.875H1.875V15.625H6.875V14.375C6.875 12.9943 5.75571 11.875 4.375 11.875Z"
						stroke="#111111"
						stroke-width="1.5"
						stroke-linecap="round"
						stroke-linejoin="round"></path>
					<path
						fill-rule="evenodd"
						clip-rule="evenodd"
						d="M15.625 11.875H11.6925C10.272 11.875 8.97346 12.6777 8.33833 13.9483L7.5 15.625H18.125V14.375C18.125 12.9943 17.0057 11.875 15.625 11.875Z"
						stroke="#111111"
						stroke-width="1.5"
						stroke-linecap="round"
						stroke-linejoin="round"></path>
				</symbol>

				<!-- beds -->
				<symbol
					width="20"
					height="16"
					viewBox="0 0 20 16"
					fill="none"
					id="beds">
					<path
						d="M2.40015 7.375V5.5C2.40015 4.80964 2.9374 4.25 3.60015 4.25H8.40015C9.06289 4.25 9.60015 4.80964 9.60015 5.5V7.375"
						stroke="#111111"
						stroke-width="1.5"
						stroke-linecap="round"
						stroke-linejoin="round"></path>
					<path
						d="M9.6001 7.375V5.5C9.6001 4.80964 10.1374 4.25 10.8001 4.25H15.6001C16.2628 4.25 16.8001 4.80964 16.8001 5.5V7.375"
						stroke="#111111"
						stroke-width="1.5"
						stroke-linecap="round"
						stroke-linejoin="round"></path>
					<path
						fill-rule="evenodd"
						clip-rule="evenodd"
						d="M2.2001 7.375H17.0001C17.8838 7.375 18.6001 8.12119 18.6001 9.04167V13H0.600098V9.04167C0.600098 8.12119 1.31644 7.375 2.2001 7.375Z"
						stroke="#111111"
						stroke-width="1.5"
						stroke-linecap="round"
						stroke-linejoin="round"></path>
					<path
						d="M0.600098 13V15.5"
						stroke="#111111"
						stroke-width="1.5"
						stroke-linecap="round"
						stroke-linejoin="round"></path>
					<path
						d="M18.6001 13V15.5"
						stroke="#111111"
						stroke-width="1.5"
						stroke-linecap="round"
						stroke-linejoin="round"></path>
					<path
						d="M16.8001 7.375V1.75C16.8001 1.05964 16.2629 0.5 15.6001 0.5H3.60015C2.9374 0.5 2.40015 1.05964 2.40015 1.75V7.375"
						stroke="#111111"
						stroke-width="1.5"
						stroke-linecap="round"
						stroke-linejoin="round"></path>
				</symbol>

				<!-- baths -->
				<symbol
					width="16"
					height="20"
					viewBox="0 0 16 20"
					fill="none"
					id="baths">
					<path
						d="M5.96167 5.625C5.96167 2.86358 8.20025 0.625 10.9617 0.625C13.7231 0.625 15.9617 2.86358 15.9617 5.625V19.375"
						stroke="#111111"
						stroke-width="1.5"
						stroke-linecap="round"
						stroke-linejoin="round"></path>
					<path
						fill-rule="evenodd"
						clip-rule="evenodd"
						d="M2.21167 9.375C2.21167 7.30393 3.8906 5.625 5.96167 5.625C8.03274 5.625 9.71167 7.30393 9.71167 9.375H2.21167Z"
						stroke="#111111"
						stroke-width="1.5"
						stroke-linecap="round"
						stroke-linejoin="round"></path>
					<path
						d="M5.96167 12.5C6.13426 12.5 6.27417 12.6399 6.27417 12.8125C6.27417 12.9851 6.13426 13.125 5.96167 13.125C5.78908 13.125 5.64917 12.9851 5.64917 12.8125C5.64917 12.6399 5.78908 12.5 5.96167 12.5"
						stroke="#111111"
						stroke-width="1.5"
						stroke-linecap="round"
						stroke-linejoin="round"></path>
					<path
						d="M5.96167 17.5C6.13426 17.5 6.27417 17.6399 6.27417 17.8125C6.27417 17.9851 6.13426 18.125 5.96167 18.125C5.78908 18.125 5.64917 17.9851 5.64917 17.8125C5.64917 17.6399 5.78908 17.5 5.96167 17.5"
						stroke="#111111"
						stroke-width="1.5"
						stroke-linecap="round"
						stroke-linejoin="round"></path>
					<path
						d="M9.30271 12.5158C9.42291 12.4765 9.55499 12.5134 9.63729 12.6095C9.71958 12.7055 9.73587 12.8417 9.67854 12.9545C9.62122 13.0672 9.50158 13.1343 9.37549 13.1244C9.24939 13.1144 9.14171 13.0295 9.10271 12.9092C9.04961 12.7454 9.13905 12.5694 9.30271 12.5158"
						stroke="#111111"
						stroke-width="1.5"
						stroke-linecap="round"
						stroke-linejoin="round"></path>
					<path
						d="M10.8511 17.27C10.9713 17.2306 11.1033 17.2676 11.1856 17.3636C11.2679 17.4597 11.2842 17.5959 11.2269 17.7086C11.1696 17.8214 11.0499 17.8884 10.9238 17.8785C10.7977 17.8686 10.6901 17.7836 10.6511 17.6633C10.598 17.4995 10.6874 17.3236 10.8511 17.27"
						stroke="#111111"
						stroke-width="1.5"
						stroke-linecap="round"
						stroke-linejoin="round"></path>
					<path
						d="M2.62096 12.5158C2.50076 12.4765 2.36868 12.5134 2.28638 12.6095C2.20409 12.7055 2.1878 12.8417 2.24513 12.9545C2.30246 13.0672 2.42209 13.1343 2.54818 13.1244C2.67428 13.1144 2.78196 13.0295 2.82096 12.9092C2.87406 12.7454 2.78462 12.5694 2.62096 12.5158"
						stroke="#111111"
						stroke-width="1.5"
						stroke-linecap="round"
						stroke-linejoin="round"></path>
					<path
						d="M1.0726 17.27C0.952346 17.2309 0.820412 17.2682 0.738349 17.3644C0.656285 17.4606 0.640264 17.5967 0.697759 17.7093C0.755254 17.8219 0.874935 17.8888 1.00097 17.8787C1.127 17.8687 1.23454 17.7836 1.27343 17.6633C1.29913 17.5845 1.29239 17.4988 1.25471 17.4249C1.21702 17.3511 1.15149 17.2954 1.0726 17.27"
						stroke="#111111"
						stroke-width="1.5"
						stroke-linecap="round"
						stroke-linejoin="round"></path>
				</symbol>

	<!-- exclamation component -->
<symbol
					width="12"
					height="12"
					viewBox="0 0 12 12"
					fill="none"
					id="exclamation">
					<g
						opacity="0.3"
						clip-path="url(#exclamation_clip0_1745_46537)">
						<path
							d="M6 11C8.76142 11 11 8.76142 11 6C11 3.23858 8.76142 1 6 1C3.23858 1 1 3.23858 1 6C1 8.76142 3.23858 11 6 11Z"
							stroke="#111111"
							stroke-width="1.5"
							stroke-linecap="round"
							stroke-linejoin="round"></path>
						<path
							d="M6 8V6"
							stroke="#111111"
							stroke-width="1.5"
							stroke-linecap="round"
							stroke-linejoin="round"></path>
						<path
							d="M6 4H6.005"
							stroke="#111111"
							stroke-width="1.5"
							stroke-linecap="round"
							stroke-linejoin="round"></path>
					</g>
					<defs>
						<clipPath id="exclamation_clip0_1745_46537">
							<rect width="12" height="12" fill="white"></rect>
						</clipPath>
					</defs>
				</symbol>

	<!-- star component -->
					<symbol
					viewBox="0 0 16 16"
					fill="none"
					id="star">
					<path
						d="M7.52772 1.35869C7.68337 0.910913 8.31663 0.910914 8.47228 1.35869L9.76668 5.0825C9.83534 5.28004 10.0197 5.41397 10.2288 5.41823L14.1703 5.49856C14.6443 5.50822 14.84 6.11049 14.4622 6.39689L11.3206 8.77865C11.154 8.905 11.0836 9.12171 11.1441 9.32188L12.2857 13.0953C12.423 13.5491 11.9107 13.9213 11.5216 13.6505L8.28559 11.3987C8.11393 11.2793 7.88607 11.2793 7.71441 11.3987L4.47842 13.6505C4.0893 13.9213 3.57698 13.5491 3.71425 13.0953L4.85587 9.32188C4.91643 9.12171 4.84601 8.905 4.67936 8.77865L1.5378 6.39689C1.16003 6.11049 1.35572 5.50822 1.82969 5.49856L5.77123 5.41823C5.98031 5.41397 6.16466 5.28004 6.23332 5.0825L7.52772 1.35869Z"
						fill="#111111"></path>
				</symbol>

				<!-- workspaces -->
				<symbol
					width="56"
					height="56"
					fill="none"
					id="workspaces">
					<rect
						width="56"
						height="56"
						rx="28"
						fill="#D43B51"
						fill-opacity=".04"></rect>
					<path
						clip-rule="evenodd"
						d="M18.991 18.25a1.5 1.5 0 0 1 1.5-1.5h9a1.5 1.5 0 0 1 1.5 1.5v6a1.5 1.5 0 0 1-1.5 1.5h-9a1.5 1.5 0 0 1-1.5-1.5v-6ZM37.95 31.335a.751.751 0 0 1-.672.415H18.705a.75.75 0 0 1-.67-.415l-.75-1.5a.75.75 0 0 1 .67-1.085h20.073a.75.75 0 0 1 .671 1.085l-.75 1.5Z"
						stroke="#D43B51"
						stroke-width="1.5"
						stroke-linecap="round"
						stroke-linejoin="round"></path>
					<path
						d="m21.241 31.75-2.25 7.5h1.5l4.5-7.5m9.75 0 2.25 7.5h-1.5l-4.5-7.5m-12-9h12m-7.5 3-.75 3m3.75-3 .75 3"
						stroke="#D43B51"
						stroke-width="1.5"
						stroke-linecap="round"
						stroke-linejoin="round"></path>
					<path
						clip-rule="evenodd"
						d="M33.991 25.75h3v3h-3v-3Z"
						stroke="#D43B51"
						stroke-width="1.5"
						stroke-linecap="round"
						stroke-linejoin="round"></path>
					<path
						d="m35.491 25.75 1.5-3.75"
						stroke="#D43B51"
						stroke-width="1.5"
						stroke-linecap="round"
						stroke-linejoin="round"></path>
				</symbol>

				<symbol
					width="57"
					height="56"
					fill="none"
					id="selfcheckin">
					<rect
						x=".333"
						width="56"
						height="56"
						rx="28"
						fill="#D43B51"
						fill-opacity=".04"></rect>
					<path
						d="M32.084 25.75v-6a3 3 0 0 0-3-3h-8.25a3 3 0 0 0-3 3v16.5a3 3 0 0 0 3 3h6"
						stroke="#D43B51"
						stroke-width="1.5"
						stroke-linecap="round"
						stroke-linejoin="round"></path>
					<path
						d="M38.833 34a5.25 5.25 0 1 1-5.25-5.25"
						stroke="#D43B51"
						stroke-width="1.5"
						stroke-linecap="round"
						stroke-linejoin="round"></path>
					<path
						d="m38.833 30.062-4.785 4.786a.658.658 0 0 1-.929 0l-1.5-1.5M17.833 35.5h7.501"
						stroke="#D43B51"
						stroke-width="1.5"
						stroke-linecap="round"
						stroke-linejoin="round"></path>
					<path
						clip-rule="evenodd"
						d="M25.087 22.9a1.575 1.575 0 1 0 0-3.15 1.575 1.575 0 0 0 0 3.15Zm2.759 3.545a2.756 2.756 0 1 0-5.513 0v1.181h1.182l.393 3.938h2.363l.394-3.938h1.18v-1.181Z"
						stroke="#D43B51"
						stroke-width="1.5"
						stroke-linecap="round"
						stroke-linejoin="round"></path>
				</symbol>

				<symbol
					width="57"
					height="56"
					fill="none"
					id="freecancel">
					<rect
						x=".667"
						width="56"
						height="56"
						rx="28"
						fill="#D43B51"
						fill-opacity=".04"></rect>
					<path
						clip-rule="evenodd"
						d="M33.917 39.25a6 6 0 1 0 0-12 6 6 0 0 0 0 12Z"
						stroke="#D43B51"
						stroke-width="1.5"
						stroke-linecap="round"
						stroke-linejoin="round"></path>
					<path
						d="m36.59 31.506-2.904 3.873a.752.752 0 0 1-1.131.081l-1.5-1.5m-6.138-.71h-6a1.5 1.5 0 0 1-1.5-1.5V19.765a1.5 1.5 0 0 1 1.5-1.5h13.5a1.5 1.5 0 0 1 1.5 1.5v4.485"
						stroke="#D43B51"
						stroke-width="1.5"
						stroke-linecap="round"
						stroke-linejoin="round"></path>
					<path
						d="M17.417 22.75h16.5"
						stroke="#D43B51"
						stroke-width="1.5"
						stroke-linejoin="round"></path>
					<path
						d="M21.91 19.75v-3m7.5 3v-3"
						stroke="#D43B51"
						stroke-width="1.5"
						stroke-linecap="round"
						stroke-linejoin="round"></path>
				</symbol>

				<!-- shield -->
				<symbol viewBox="0 0 24 24" fill="none" stroke="currentColor" stroke-width="2" stroke-linecap="round" stroke-linejoin="round" id="shield">
				<path d="M12 22s8-4 8-10V5l-8-3-8 3v7c0 6 8 10 8 10z"></path>
				</symbol>
</svg>
