
<svg
	id="__svg__icons__dom__"
	xmlns="http://www.w3.org/2000/svg"
	xmlns:link="http://www.w3.org/1999/xlink">
	<!-- apps icon -->
	<symbol fill="currentColor" viewBox="0 0 20 20" id="apps">
		<path
			d="M8.33333 2.5H2.5V8.33333H8.33333V2.5Z"
			stroke="white"
			stroke-width="1.5"
			stroke-linecap="round"
			stroke-linejoin="round"></path>
		<path
			d="M17.5 2.5H11.6667V8.33333H17.5V2.5Z"
			stroke="white"
			stroke-width="1.5"
			stroke-linecap="round"
			stroke-linejoin="round"></path>
		<path
			d="M17.5 11.6667H11.6667V17.5H17.5V11.6667Z"
			stroke="white"
			stroke-width="1.5"
			stroke-linecap="round"
			stroke-linejoin="round"></path>
		<path
			d="M8.33333 11.6667H2.5V17.5H8.33333V11.6667Z"
			stroke="white"
			stroke-width="1.5"
			stroke-linecap="round"
			stroke-linejoin="round"></path>
	</symbol>

	<symbol viewBox="0 0 20 20" fill="none" id="fold-apps">
		<g clip-path="url(#fold-apps_clip0_1684_46771)">
			<path
				d="M0.833336 5V18.3333L6.66667 15L13.3333 18.3333L19.1667 15V1.66666L13.3333 5L6.66667 1.66666L0.833336 5Z"
				stroke="#717171"
				stroke-width="1.5"
				stroke-linecap="round"
				stroke-linejoin="round"></path>
			<path
				d="M6.66666 1.66666V15"
				stroke="#717171"
				stroke-width="1.5"
				stroke-linecap="round"
				stroke-linejoin="round"></path>
			<path
				d="M13.3333 5V18.3333"
				stroke="#717171"
				stroke-width="1.5"
				stroke-linecap="round"
				stroke-linejoin="round"></path>
		</g>
		<defs>
			<clipPath id="fold-apps_clip0_1684_46771">
				<rect width="20" height="20" fill="white"></rect>
			</clipPath>
		</defs>
	</symbol>

	<!-- funnel -->
	<symbol viewBox="0 0 20 20" fill="none" id="funnel">
		<path
			d="M18.3333 2.5H1.66663L8.33329 10.3833V15.8333L11.6666 17.5V10.3833L18.3333 2.5Z"
			stroke="#717171"
			stroke-width="1.5"
			stroke-linecap="round"
			stroke-linejoin="round"></path>
	</symbol>

	<!-- caret-down -->
	<symbol viewBox="0 0 20 20" fill="none" id="caret-down">
		<path
			d="M5 7.5L10 12.5L15 7.5"
			stroke="#717171"
			stroke-width="1.5"
			stroke-linecap="round"
			stroke-linejoin="round"></path>
	</symbol>

	<!-- calendar icon -->
	<symbol viewBox="0 0 20 20" fill="none" id="calendar">
		<path
			d="M15.8333 3.33334H4.16667C3.24619 3.33334 2.5 4.07953 2.5 5V16.6667C2.5 17.5871 3.24619 18.3333 4.16667 18.3333H15.8333C16.7538 18.3333 17.5 17.5871 17.5 16.6667V5C17.5 4.07953 16.7538 3.33334 15.8333 3.33334Z"
			stroke="#717171"
			stroke-width="1.5"
			stroke-linecap="round"
			stroke-linejoin="round"></path>
		<path
			d="M13.3333 1.66666V5"
			stroke="#717171"
			stroke-width="1.5"
			stroke-linecap="round"
			stroke-linejoin="round"></path>
		<path
			d="M6.66669 1.66666V5"
			stroke="#717171"
			stroke-width="1.5"
			stroke-linecap="round"
			stroke-linejoin="round"></path>
		<path
			d="M2.5 8.33334H17.5"
			stroke="#717171"
			stroke-width="1.5"
			stroke-linecap="round"
			stroke-linejoin="round"></path>
	</symbol>

	<!-- minus icon -->

	<symbol
		id="minus"
		fill="none"
		viewBox="0 0 24 24"
		stroke-width="2"
		stroke="currentColor">
		<path stroke-linecap="round" stroke-linejoin="round" d="M18 12H6" />
	</symbol>

	<!-- plus icon -->
	<symbol
		fill="none"
		viewBox="0 0 24 24"
		stroke-width="2"
		stroke="currentColor"
		id="plus">
		<path
			stroke-linecap="round"
			stroke-linejoin="round"
			stroke="currentColor"
			d="M12 6v12m6-6H6" />
	</symbol>

	<!-- sidebar icons -->

	<!-- airbnb icon -->
	<symbol fill="none" viewBox="0 0 24 24" id="airbnb">
		<path
			d="M23.0635 17.0326C22.9558 16.7305 22.8298 16.4382 22.7101 16.1674C22.5257 15.7508 22.3326 15.3334 22.1458 14.93L22.131 14.898C20.465 11.2942 18.6769 7.64107 16.8164 4.04026L16.7374 3.88737C16.5476 3.51967 16.3514 3.13947 16.1501 2.76589C15.9113 2.29312 15.6216 1.8477 15.286 1.43751C14.9083 0.987382 14.4361 0.625366 13.9028 0.37699C13.3695 0.128614 12.788 -7.37969e-05 12.1994 3.17487e-08C11.6108 7.38603e-05 11.0293 0.128908 10.496 0.377418C9.96283 0.625928 9.49072 0.988064 9.11314 1.43828C8.77798 1.84857 8.48842 2.2939 8.24958 2.76643C8.04648 3.14336 7.84844 3.52708 7.65695 3.89818L7.58361 4.04022C5.72303 7.6413 3.93492 11.2944 2.26898 14.8979L2.2447 14.9503C2.06114 15.3472 1.87136 15.7576 1.69005 16.1672C1.57023 16.4378 1.44448 16.7299 1.33663 17.0327C1.02771 17.8578 0.929271 18.7465 1.05016 19.6189C1.17836 20.5005 1.53533 21.3335 2.08571 22.0353C2.63609 22.7371 3.36079 23.2833 4.18803 23.6199C4.81286 23.8724 5.48095 24.0015 6.15516 24C6.36694 23.9999 6.57855 23.9876 6.78892 23.9632C7.64163 23.8546 8.46404 23.5774 9.20789 23.1479C10.1836 22.6003 11.1473 21.7978 12.2 20.6511C13.2527 21.7978 14.2164 22.6003 15.1921 23.1479C15.9359 23.5775 16.7584 23.8546 17.6111 23.9632C17.8214 23.9876 18.0331 23.9999 18.2449 24C18.919 24.0015 19.587 23.8724 20.2119 23.6199C21.0391 23.2833 21.7639 22.7371 22.3143 22.0353C22.8647 21.3335 23.2217 20.5006 23.3499 19.6189C23.4707 18.7464 23.3722 17.8577 23.0635 17.0326ZM12.2 18.2827C10.8968 16.6327 10.0606 15.1003 9.76717 13.8157C9.64696 13.3344 9.61858 12.8348 9.68353 12.343C9.73481 11.9824 9.8674 11.6382 10.0713 11.3361C10.3222 11.011 10.6447 10.7478 11.0138 10.5667C11.3829 10.3856 11.7888 10.2914 12.2002 10.2914C12.6116 10.2915 13.0174 10.3857 13.3865 10.5669C13.7556 10.748 14.078 11.0113 14.3289 11.3363C14.5328 11.6386 14.6654 11.9828 14.7167 12.3434C14.7815 12.8355 14.753 13.3352 14.6326 13.8167C14.3389 15.1012 13.5029 16.633 12.2 18.2827ZM21.8278 19.4017C21.7382 20.0181 21.4885 20.6005 21.1037 21.0912C20.7189 21.5819 20.2122 21.9639 19.6337 22.1992C19.0489 22.4333 18.4141 22.5163 17.7886 22.4404C17.1383 22.3567 16.5116 22.1429 15.9462 21.8118C15.0777 21.3244 14.1985 20.5761 13.2092 19.4784C14.7841 17.5384 15.7676 15.7504 16.1318 14.1577C16.2957 13.488 16.3312 12.7934 16.2365 12.1106C16.1506 11.5224 15.932 10.9612 15.5971 10.4695C15.2048 9.93892 14.6931 9.5076 14.1031 9.21037C13.513 8.91315 12.8612 8.75827 12.2002 8.75827C11.5391 8.75827 10.8873 8.91307 10.2972 9.21022C9.70718 9.50737 9.19543 9.93862 8.80313 10.4692C8.46832 10.9608 8.24972 11.5218 8.16374 12.1099C8.06902 12.7924 8.10436 13.4866 8.26789 14.1562C8.6318 15.7495 9.61535 17.538 11.1908 19.4785C10.2015 20.5761 9.32231 21.3244 8.45377 21.8119C7.88841 22.1429 7.26178 22.3567 6.61149 22.4404C5.98584 22.5163 5.35111 22.4333 4.7662 22.1992C4.18778 21.9639 3.68107 21.5819 3.29625 21.0913C2.91144 20.6005 2.66187 20.0181 2.57227 19.4017C2.48609 18.775 2.55943 18.1369 2.78555 17.5459C2.87151 17.3046 2.97209 17.0677 3.0967 16.7863C3.27299 16.3882 3.46007 15.9836 3.64103 15.5923L3.66533 15.5398C5.32196 11.9564 7.10016 8.32365 8.95059 4.7422L9.02424 4.59962C9.21262 4.23451 9.40746 3.857 9.60402 3.49222C9.79202 3.11626 10.0196 2.76128 10.2829 2.4333C10.5162 2.15177 10.809 1.92511 11.1403 1.7695C11.4717 1.61389 11.8335 1.53319 12.1997 1.53316C12.5659 1.53313 12.9278 1.61378 13.2591 1.76933C13.5905 1.92488 13.8833 2.1515 14.1167 2.43299C14.3801 2.76073 14.6078 3.11558 14.7956 3.49153C14.9904 3.85306 15.1835 4.22717 15.3703 4.58893L15.4494 4.74236C17.2998 8.32342 19.0779 11.9561 20.7347 15.5401L20.7497 15.5723C20.9338 15.9702 21.1241 16.3814 21.3033 16.7865C21.4281 17.0683 21.5289 17.3053 21.6146 17.5458C21.8406 18.1368 21.9139 18.775 21.8278 19.4017Z"
			fill="#121212"></path>
	</symbol>

	<!-- views icon -->
	<symbol fill="none" viewBox="0 0 24 24" id="views">
		<path
			clip-rule="evenodd"
			d="M21.25 21.75a1.5 1.5 0 0 1-1.5 1.5h-15a1.5 1.5 0 0 1-1.5-1.5v-12a9 9 0 0 1 18 0v12Z"
			stroke="#000"
			stroke-width="1.5"
			stroke-linecap="round"
			stroke-linejoin="round"></path>
		<path
			d="M3.25 9.75h18m-18 6h18m-9-6v-9m-3 9v13.5m6-13.5v13.5M5.56 3.729l6.69 6.021m6.69-6.021L12.25 9.75"
			stroke="#000"
			stroke-width="1.5"
			stroke-linecap="round"
			stroke-linejoin="round"></path>
	</symbol>

	<!-- tiny icon -->
	<symbol fill="none" viewBox="0 0 24 24" id="tiny">
		<path
			d="M.788 20.571H23.25"
			stroke="#000"
			stroke-width="1.5"
			stroke-linecap="round"
			stroke-linejoin="round"></path>
		<path
			clip-rule="evenodd"
			d="M9.773 20.571H2.286v-9.733l7.487-1.497v11.23Zm11.98 0H9.773V4.101l11.98 5.24v11.23Z"
			stroke="#000"
			stroke-width="1.5"
			stroke-linecap="round"
			stroke-linejoin="round"></path>
		<path
			d="M12.768 8.967a.374.374 0 0 1 .374.374m-.749 0c0-.207.168-.374.375-.374m0 .749a.375.375 0 0 1-.375-.375"
			stroke="#000"
			stroke-width="1.5"
			stroke-linecap="round"
			stroke-linejoin="round"></path>
		<path
			d="M13.142 9.341a.374.374 0 0 1-.374.375"
			stroke="#000"
			stroke-width="1.5"
			stroke-linecap="round"
			stroke-linejoin="round"></path>
		<path
			clip-rule="evenodd"
			d="M18.758 20.571h-5.99v-4.492a1.5 1.5 0 0 1 1.5-1.5h3a1.5 1.5 0 0 1 1.5 1.5l-.01 4.492Z"
			stroke="#000"
			stroke-width="1.5"
			stroke-linecap="round"
			stroke-linejoin="round"></path>
		<path
			d="m.75 11.146 9.023-1.805M8.238 3.429l15.008 6.565m-4.488-1.972V4.101h2.995v5.24"
			stroke="#000"
			stroke-width="1.5"
			stroke-linecap="round"
			stroke-linejoin="round"></path>
	</symbol>

	<!-- kitchen icon -->
	<symbol fill="none" viewBox="0 0 24 24" id="kitchen">
		<path
			d="M.75 4.5H22.5a.75.75 0 0 1 .75.75V9a1.5 1.5 0 0 1-1.5 1.5h-12A1.5 1.5 0 0 1 8.25 9V4.5M9.75 15v1.5m3 0v-3m3 1.5v1.5m6-1.5v1.5m-3 0v-3m-10.5 6h15"
			stroke="#000"
			stroke-width="1.5"
			stroke-linecap="round"
			stroke-linejoin="round"></path>
	</symbol>

	<!-- surfer icon -->
	<symbol fill="none" viewBox="0 0 24 24" id="surfer">
		<path
			clip-rule="evenodd"
			d="M17.25 6.25a2.625 2.625 0 1 0 0-5.25 2.625 2.625 0 0 0 0 5.25Z"
			stroke="#000"
			stroke-width="1.5"
			stroke-linecap="round"
			stroke-linejoin="round"></path>
		<path
			d="M16.454 18.993c.03-.12.046-.244.046-.368v-2.947a3 3 0 0 0-1.336-2.5l-.57-.38.7-1.758c.56.263 1.1.567 1.616.91l4 2.669a1.502 1.502 0 0 0 1.665-2.5l-4-2.669a15.54 15.54 0 0 0-6.668-2.48A4.494 4.494 0 0 1 8.721 5a1.502 1.502 0 1 0-2.5 1.664A7.486 7.486 0 0 0 10.5 9.75l-1.21 1.214a3.01 3.01 0 0 0-.79 2.848l.3 1.211-2.2 1.652a1.5 1.5 0 0 0-.473.6"
			stroke="#000"
			stroke-width="1.5"
			stroke-linecap="round"
			stroke-linejoin="round"></path>
		<path
			d="m9.954 17.909.648-.485a3 3 0 0 0 1.155-2.924c.05.044 1.743 1.18 1.743 1.18v2.82m-12.75.875 22.5 3.75M2.137 19.606l-.844 2.532a.751.751 0 0 0 1.022.92l5.509-2.5"
			stroke="#000"
			stroke-width="1.5"
			stroke-linecap="round"
			stroke-linejoin="round"></path>
	</symbol>

	<!-- mansion icon -->
	<symbol fill="none" viewBox="0 0 24 24" id="mansion">
		<path
			clip-rule="evenodd"
			d="M16.5 21.25h-9V11.5l3.876-5.814a.75.75 0 0 1 1.248 0L16.5 11.5v9.75Z"
			stroke="#000"
			stroke-width="1.5"
			stroke-linecap="round"
			stroke-linejoin="round"></path>
		<path
			d="M12 11.875a.375.375 0 1 1 0 .75.375.375 0 0 1 0-.75"
			stroke="#000"
			stroke-width="1.5"
			stroke-linecap="round"
			stroke-linejoin="round"></path>
		<path
			clip-rule="evenodd"
			d="M13.5 21.25h-3v-3a1.5 1.5 0 0 1 3 0v3Zm-12-13.5h6v13.5h-5a1 1 0 0 1-1-1V7.75Zm15 0h6v12.5a1 1 0 0 1-1 1h-5V7.75Z"
			stroke="#000"
			stroke-width="1.5"
			stroke-linecap="round"
			stroke-linejoin="round"></path>
		<path
			d="m2.25 7.75 2.25-4.5 2.25 4.5m10.5 0 2.25-4.5 2.25 4.5M4.5 12.25v1.5m15-1.5v1.5m-18 0h6m9 0h6m-18 3v1.5m15-1.5v1.5"
			stroke="#000"
			stroke-width="1.5"
			stroke-linecap="round"
			stroke-linejoin="round"></path>
	</symbol>

	<!-- luxe icon -->
	<symbol fill="none" viewBox="0 0 24 24" id="luxe">
		<path
			d="M.75 14.254v9"
			stroke="#000"
			stroke-width="1.5"
			stroke-linecap="round"
			stroke-linejoin="round"></path>
		<path
			clip-rule="evenodd"
			d="M15.75 21.754a3 3 0 0 0-3-3H9a3 3 0 0 0-3-3H.75v6h15Z"
			stroke="#000"
			stroke-width="1.5"
			stroke-linecap="round"
			stroke-linejoin="round"></path>
		<path
			d="M6 18.754h3m-6.75-7.5h21M12.75.754v1.5"
			stroke="#000"
			stroke-width="1.5"
			stroke-linecap="round"
			stroke-linejoin="round"></path>
		<path
			clip-rule="evenodd"
			d="M21.75 11.254a9 9 0 1 0-18 0h18Z"
			stroke="#000"
			stroke-width="1.5"
			stroke-linecap="round"
			stroke-linejoin="round"></path>
		<path
			d="m21.75 11.254-.671 1.346a3 3 0 0 1-2.679 1.654h-7.15"
			stroke="#000"
			stroke-width="1.5"
			stroke-linecap="round"
			stroke-linejoin="round"></path>
	</symbol>

	<!-- treehouses icon -->
	<symbol fill="none" viewBox="0 0 24 24" id="treehouses">
		<path
			clip-rule="evenodd"
			d="M7.374 1.084a.75.75 0 0 0-1.248 0L2.25 7.5H4.5l-2.9 4.128a.75.75 0 0 0 .65 1.122h9a.75.75 0 0 0 .651-1.122L9.001 7.5h2.25L7.373 1.084Z"
			stroke="#000"
			stroke-width="1.5"
			stroke-linecap="round"
			stroke-linejoin="round"></path>
		<path
			d="M6.75 12.75v4.582"
			stroke="#000"
			stroke-width="1.5"
			stroke-linecap="round"
			stroke-linejoin="round"></path>
		<path
			clip-rule="evenodd"
			d="M19.262 1.023a.614.614 0 0 0-1.021 0L15.069 6h1.841l-2.578 3.582a.613.613 0 0 0 .533.918h7.77a.613.613 0 0 0 .533-.918L20.592 6h1.841l-3.171-4.977Z"
			stroke="#000"
			stroke-width="1.5"
			stroke-linecap="round"
			stroke-linejoin="round"></path>
		<path
			d="M18.751 10.5v4.035M.805 18a13.517 13.517 0 0 1 15.673 5.254"
			stroke="#000"
			stroke-width="1.5"
			stroke-linecap="round"
			stroke-linejoin="round"></path>
		<path
			d="M10.969 18.518A15.7 15.7 0 0 1 21.75 14.25c.506 0 1.006.023 1.5.07"
			stroke="#000"
			stroke-width="1.5"
			stroke-linecap="round"
			stroke-linejoin="round"></path>
	</symbol>

	<!-- camping icon -->
	<symbol fill="none" viewBox="0 0 24 24" id="camping">
		<path
			clip-rule="evenodd"
			d="M3 23.25a1.5 1.5 0 0 1-1.36-2.134l9-19.5a1.5 1.5 0 0 1 2.719 0l9 19.5a1.5 1.5 0 0 1-1.36 2.134H3Z"
			stroke="#000"
			stroke-width="1.5"
			stroke-linecap="round"
			stroke-linejoin="round"></path>
		<path
			clip-rule="evenodd"
			d="M7.5 23.25h9l-3.158-8.171a1.5 1.5 0 0 0-2.684 0L7.5 23.25Z"
			stroke="#000"
			stroke-width="1.5"
			stroke-linecap="round"
			stroke-linejoin="round"></path>
		<path
			d="M8.25 6.75h7.406m-9.462 4.5h11.612m-5.806 3v9"
			stroke="#000"
			stroke-width="1.5"
			stroke-linecap="round"
			stroke-linejoin="round"></path>
	</symbol>

	<!-- beachfront icon -->
	<symbol fill="none" viewBox="0 0 24 24" id="beachfront">
		<path
			d="m8.25 7.5 6.35 3.887a.729.729 0 0 0 1.109-.6 4.1 4.1 0 0 0-2.189-4.083 5.953 5.953 0 0 0-2.02-.592M8.25 7.5H1.5a.769.769 0 0 1-.684-1.033 4.165 4.165 0 0 1 3.957-2.68 5.549 5.549 0 0 1 2.627.744"
			stroke="#000"
			stroke-width="1.5"
			stroke-linecap="round"
			stroke-linejoin="round"></path>
		<path
			d="m12.864 6.429 3.309-1.97a.653.653 0 0 0 .085-1.073 4.264 4.264 0 0 0-4.428-.673 3.244 3.244 0 0 0-1.53 1.426"
			stroke="#000"
			stroke-width="1.5"
			stroke-linecap="round"
			stroke-linejoin="round"></path>
		<path
			d="M5.907 3.939 4.712 1.72a.656.656 0 0 1 .6-.969 11.57 11.57 0 0 1 2.188.343 4.454 4.454 0 0 1 2.808 3.045M23.25 20.25h-8.867a1.5 1.5 0 0 1-1.312-.772L10.5 14.25m9.752 6 .75 3m-7.392-3.216-1.608 3.216m-.395-6.75H16.5M.75 23.25C.867 21.258.84 12.828 7.5 7.5m.75 0A31.7 31.7 0 0 0 6 23.25"
			stroke="#000"
			stroke-width="1.5"
			stroke-linecap="round"
			stroke-linejoin="round"></path>
	</symbol>

	<!-- farms icon -->
	<symbol fill="none" viewBox="0 0 24 24" id="farms">
		<path
			d="m.75 13.24 3-7.2L12 1.72m11.25 11.52-3-7.2L12 1.72m-8.25 21.6v-10.8m16.5 10.8v-10.8M.75 23.32h22.5m-15.75 0v-7.2h9v7.2m-9-7.2 9 7.2m0-7.2-9 7.2"
			stroke="#000"
			stroke-width="1.5"
			stroke-linecap="round"
			stroke-linejoin="round"></path>
		<path
			clip-rule="evenodd"
			d="M12 10.36c1.243 0 2.25-.967 2.25-2.16S13.243 6.04 12 6.04s-2.25.967-2.25 2.16 1.007 2.16 2.25 2.16Z"
			stroke="#000"
			stroke-width="1.5"
			stroke-linecap="round"
			stroke-linejoin="round"></path>
	</symbol>

	<!-- castles icon -->
	<symbol fill="none" viewBox="0 0 24 24" id="castles">
		<path
			clip-rule="evenodd"
			d="M19.5 1.72c.414 0 .75.322.75.72V8.2c0 .398-.336.72-.75.72h-15c-.414 0-.75-.322-.75-.72V2.44c0-.398.336-.72.75-.72h2.25c.414 0 .75.322.75.72v.72c0 .795.672 1.44 1.5 1.44s1.5-.645 1.5-1.44v-.72c0-.398.336-.72.75-.72h1.5c.414 0 .75.322.75.72v.72c0 .795.672 1.44 1.5 1.44s1.5-.645 1.5-1.44v-.72c0-.398.336-.72.75-.72h2.25ZM5.25 8.92l-1.5 14.4h16.5l-1.5-14.4H5.25v0Z"
			stroke="#000"
			stroke-width="1.5"
			stroke-linecap="round"
			stroke-linejoin="round"></path>
		<path
			clip-rule="evenodd"
			d="M14.25 23.32h-4.5v-5.04c0-1.193 1.007-2.16 2.25-2.16s2.25.967 2.25 2.16v5.04Z"
			stroke="#000"
			stroke-width="1.5"
			stroke-linecap="round"
			stroke-linejoin="round"></path>
		<path
			d="M.75 23.32h22.5"
			stroke="#000"
			stroke-width="1.5"
			stroke-linecap="round"
			stroke-linejoin="round"></path>
	</symbol>

	<!-- islands icon -->
	<symbol fill="none" viewBox="0 0 24 24" id="islands">
		<path
			clip-rule="evenodd"
			d="M23.25 21.75c0-2.485-5.037-4.5-11.25-4.5S.75 19.265.75 21.75v1.5h22.5v-1.5Z"
			stroke="#000"
			stroke-width="1.5"
			stroke-linecap="round"
			stroke-linejoin="round"></path>
		<path
			d="m15.634 8.477-.811 8.916m-6.336.081 5.247-9.619m0 0 8.276 2.709a.75.75 0 0 0 .975-.861 4.73 4.73 0 0 0-3.6-4.016 6.82 6.82 0 0 0-2.4-.082m-3.251 2.25L6.2 9.9a.75.75 0 0 1-.934-.873 4.756 4.756 0 0 1 3.616-4.09 6.347 6.347 0 0 1 3.112.079"
			stroke="#000"
			stroke-width="1.5"
			stroke-linecap="round"
			stroke-linejoin="round"></path>
		<path
			d="m18.578 5.567 3.1-3.116a.747.747 0 0 0-.21-1.211 4.869 4.869 0 0 0-5.088.51 3.708 3.708 0 0 0-1.28 2.01m-4.921 1.024-1.95-2.116a.748.748 0 0 1 .393-1.242c.827-.16 1.668-.24 2.51-.239A5.081 5.081 0 0 1 15.1 3.76"
			stroke="#000"
			stroke-width="1.5"
			stroke-linecap="round"
			stroke-linejoin="round"></path>
	</symbol>

	<!-- vineyards icon -->
	<symbol fill="none" viewBox="0 0 24 24" id="vineyards">
		<path
			d="M13.5.75a2.728 2.728 0 0 0-1.66 3.009"
			stroke="#000"
			stroke-width="1.5"
			stroke-linecap="round"
			stroke-linejoin="round"></path>
		<path
			clip-rule="evenodd"
			d="M5.25 11.25a2.25 2.25 0 1 0 0-4.5 2.25 2.25 0 0 0 0 4.5Zm6.75 0a2.25 2.25 0 1 0 0-4.5 2.25 2.25 0 0 0 0 4.5Zm0 12a2.25 2.25 0 1 0 0-4.5 2.25 2.25 0 0 0 0 4.5Zm-3.75-6a2.25 2.25 0 1 0 0-4.5 2.25 2.25 0 0 0 0 4.5Zm7.5 0a2.25 2.25 0 1 0 0-4.5 2.25 2.25 0 0 0 0 4.5Zm3-6a2.25 2.25 0 1 0 0-4.5 2.25 2.25 0 0 0 0 4.5Z"
			stroke="#000"
			stroke-width="1.5"
			stroke-linecap="round"
			stroke-linejoin="round"></path>
		<path
			d="M9.75.75h6"
			stroke="#000"
			stroke-width="1.5"
			stroke-linecap="round"
			stroke-linejoin="round"></path>
	</symbol>

	<!-- pools icon -->
	<symbol fill="none" viewBox="0 0 24 24" id="pools">
		<path
			clip-rule="evenodd"
			d="M18.423 9.971a2.25 2.25 0 1 0 0-4.5 2.25 2.25 0 0 0 0 4.5ZM4.831 3.428a.746.746 0 0 1 .368.3l2.544 3.986 5.851 2.2c.244.093.46.247.627.447l3.86 4.655a1.5 1.5 0 1 1-2.31 1.915l-3.605-4.351-5.946-2.233a1.5 1.5 0 0 1-.736-.6L1.6 3.653a.75.75 0 0 1 .9-1.1l2.331.875Z"
			stroke="#000"
			stroke-width="1.5"
			stroke-linecap="round"
			stroke-linejoin="round"></path>
		<path
			d="m9.163 8.247-1.055 2.809m-.935-4.235-2.76 1.252M.75 21.672a4.668 4.668 0 0 0 3.75-1.9 4.649 4.649 0 0 0 7.5 0 4.65 4.65 0 0 0 7.5 0 4.668 4.668 0 0 0 3.75 1.9"
			stroke="#000"
			stroke-width="1.5"
			stroke-linecap="round"
			stroke-linejoin="round"></path>
	</symbol>

	<!-- skiing icon -->
	<symbol fill="none" viewBox="0 0 24 24" id="skiing">
		<path
			d="m12.786 17.122 2.92.315m-3.412-4.895 3.896.421"
			stroke="#000"
			stroke-width="1.5"
			stroke-linecap="round"
			stroke-linejoin="round"></path>
		<path
			clip-rule="evenodd"
			d="M8.759.791a2.25 2.25 0 0 0-2 2.478l2.018 18.642a1.5 1.5 0 0 0 1.652 1.33l1.492-.161a1.5 1.5 0 0 0 1.33-1.652L11.237 2.786A2.25 2.25 0 0 0 8.759.791Z"
			stroke="#000"
			stroke-width="1.5"
			stroke-linecap="round"
			stroke-linejoin="round"></path>
		<path
			d="m12 23.069.079.011 1.492.161a1.5 1.5 0 0 0 1.652-1.33l2.014-18.642a2.25 2.25 0 0 0-4.474-.483L12 9.848m.768 7.106-4.474.483m3.99-4.957-4.474.483M2.25 6.75v16.5m-1.5-3h3"
			stroke="#000"
			stroke-width="1.5"
			stroke-linecap="round"
			stroke-linejoin="round"></path>
		<path
			clip-rule="evenodd"
			d="M2.25.75a1.5 1.5 0 0 0-1.5 1.5v4.5h3v-4.5a1.5 1.5 0 0 0-1.5-1.5Z"
			stroke="#000"
			stroke-width="1.5"
			stroke-linecap="round"
			stroke-linejoin="round"></path>
		<path
			d="M21.75 6.75v16.5m-1.5-3h3"
			stroke="#000"
			stroke-width="1.5"
			stroke-linecap="round"
			stroke-linejoin="round"></path>
		<path
			clip-rule="evenodd"
			d="M21.75.75a1.5 1.5 0 0 0-1.5 1.5v4.5h3v-4.5a1.5 1.5 0 0 0-1.5-1.5Z"
			stroke="#000"
			stroke-width="1.5"
			stroke-linecap="round"
			stroke-linejoin="round"></path>
	</symbol>

	<!-- desert icon -->
	<symbol fill="none" viewBox="0 0 24 24" id="desert">
		<path
			clip-rule="evenodd"
			d="M18.6 17.547a.729.729 0 0 0-.575-.281H5.98a.73.73 0 0 0-.708.907l.678 2.712A3.143 3.143 0 0 0 9 23.266h6c1.442 0 2.7-.982 3.049-2.381l.678-2.712a.726.726 0 0 0-.127-.626Z"
			stroke="#000"
			stroke-width="1.5"
			stroke-linecap="round"
			stroke-linejoin="round"></path>
		<path
			d="M12 .766v2.25M1.5 5.668l.75 1.299M4.5 5.668l-.75 1.299m4.007-4.701 1.415 1.75m7.071-1.75-1.415 1.75M22.5 7.168l-.75 1.299M19.5 7.168l.75 1.299"
			stroke="#000"
			stroke-width="1.5"
			stroke-linecap="round"
			stroke-linejoin="round"></path>
		<path
			clip-rule="evenodd"
			d="M21 8.266a1.5 1.5 0 0 0-1.5 1.5 1.5 1.5 0 0 1-1.5 1.5h-1.5v-3.75a4.5 4.5 0 1 0-9 0v2.25H6a1.5 1.5 0 0 1-1.5-1.5 1.5 1.5 0 1 0-3 0 4.5 4.5 0 0 0 4.5 4.5h1.5v4.5h9v-3H18a4.5 4.5 0 0 0 4.5-4.5 1.5 1.5 0 0 0-1.5-1.5Z"
			stroke="#000"
			stroke-width="1.5"
			stroke-linecap="round"
			stroke-linejoin="round"></path>
	</symbol>
	<!-- end of sidebar icons -->

	<!-- star component -->
	<symbol fill="none" viewBox="0 0 16 16" id="star" fill="currentColor">
		<path
			d="M7.52772 1.35869C7.68337 0.910913 8.31663 0.910914 8.47228 1.35869L9.76668 5.0825C9.83534 5.28004 10.0197 5.41397 10.2288 5.41823L14.1703 5.49856C14.6443 5.50822 14.84 6.11049 14.4622 6.39689L11.3206 8.77865C11.154 8.905 11.0836 9.12171 11.1441 9.32188L12.2857 13.0953C12.423 13.5491 11.9107 13.9213 11.5216 13.6505L8.28559 11.3987C8.11393 11.2793 7.88607 11.2793 7.71441 11.3987L4.47842 13.6505C4.0893 13.9213 3.57698 13.5491 3.71425 13.0953L4.85587 9.32188C4.91643 9.12171 4.84601 8.905 4.67936 8.77865L1.5378 6.39689C1.16003 6.11049 1.35572 5.50822 1.82969 5.49856L5.77123 5.41823C5.98031 5.41397 6.16466 5.28004 6.23332 5.0825L7.52772 1.35869Z"
			fill="currentColor"></path>
	</symbol>
	<!-- like component -->
	<symbol
		stroke-width="2"
		stroke-linecap="round"
		stroke-linejoin="round"
		id="like"
		viewBox="0 0 24 24"
		fill="none">
		<path
			d="M20.84 4.61a5.5 5.5 0 0 0-7.78 0L12 5.67l-1.06-1.06a5.5 5.5 0 0 0-7.78 7.78l1.06 1.06L12 21.23l7.78-7.78 1.06-1.06a5.5 5.5 0 0 0 0-7.78z" fill="black"></path>
	</symbol>
</svg>
